<svg xmlns="http://www.w3.org/2000/svg" width="64" height="64" viewBox="0 0 24 24">
  <rect width="100%" height="100%" rx="4" fill="#24292f" />
  <path fill="#fff" d="M12 .5C5.648.5.5 5.648.5 12c0 5.087 3.292 9.403 7.867 10.926.576.106.787-.25.787-.557 0-.274-.01-1.119-.015-2.024-3.199.696-3.875-1.542-3.875-1.542-.522-1.326-1.276-1.68-1.276-1.68-1.043-.713.08-.699.08-.699 1.153.081 1.76 1.185 1.76 1.185 1.025 1.757 2.691 1.25 3.345.957.104-.744.401-1.25.73-1.538-2.553-.291-5.238-1.277-5.238-5.683 0-1.255.447-2.28 1.182-3.086-.119-.292-.512-1.467.112-3.058 0 0 .963-.309 3.155 1.18.915-.255 1.9-.382 2.877-.387.977.005 1.962.132 2.878.387 2.19-1.489 3.151-1.18 3.151-1.18.626 1.591.233 2.766.114 3.058.737.806 1.18 1.831 1.18 3.086 0 4.417-2.692 5.387-5.257 5.672.412.355.78 1.053.78 2.122 0 1.532-.014 2.766-.014 3.145 0 .31.207.669.794.556C20.711 21.4 24 17.087 24 12 24 5.648 18.352.5 12 .5z"/>
</svg>